/* XPM */
static char *_c07d8e836514016fb1a3b153f680202QqItVs7mujLzVPNF[] = {
/* columns rows colors chars-per-pixel */
"64 64 154 2 ",
"   c None",
".  c #262526",
"X  c #282729",
"o  c #2C2B2C",
"O  c #322E2F",
"+  c #2F2E30",
"@  c #302F31",
"#  c #2F3031",
"$  c #333334",
"%  c #373738",
"&  c #383739",
"*  c #373839",
"=  c #3B3B3D",
"-  c #403E3F",
";  c #3F3E41",
":  c #403F42",
">  c #3F4041",
",  c #434445",
"<  c #444445",
"1  c #474445",
"2  c #444446",
"3  c #454446",
"4  c #444546",
"5  c #454546",
"6  c #454447",
"7  c #444547",
"8  c #454547",
"9  c #464446",
"0  c #464547",
"q  c #474547",
"w  c #444646",
"e  c #454647",
"r  c #464647",
"t  c #434244",
"y  c #484647",
"u  c #484647",
"i  c #464548",
"p  c #474548",
"a  c #464648",
"s  c #474648",
"d  c #464748",
"f  c #474649",
"g  c #464749",
"h  c #474749",
"j  c #464648",
"k  c #484649",
"l  c #484749",
"z  c #4B4749",
"x  c #48474A",
"c  c #484749",
"v  c #474849",
"b  c #47484A",
"n  c #474849",
"m  c #484849",
"M  c #4A4849",
"N  c #48484A",
"B  c #49484A",
"V  c #48494A",
"C  c #49494A",
"Z  c #49484B",
"A  c #49494B",
"S  c #4A484A",
"D  c #4A484B",
"F  c #4A494B",
"G  c #484A4A",
"H  c #484A4B",
"J  c #494B4B",
"K  c #4B494C",
"L  c #494B4C",
"P  c #4A4A4C",
"I  c #4B4A4C",
"U  c #4A4B4C",
"Y  c #4B4B4C",
"T  c #4A4B4D",
"R  c #4B4B4D",
"E  c #4C4A4C",
"W  c #4D4A4C",
"Q  c #4C4B4D",
"!  c #4A4C4D",
"~  c #4B4C4D",
"^  c #4B4C4E",
"/  c #4C4C4D",
"(  c #4C4C4E",
")  c #4D4C4E",
"_  c #4C4D4E",
"`  c #4D4D4F",
"'  c #4E4D4F",
"]  c #4D4E4F",
"[  c #4E4E4F",
"{  c #4B4B4C",
"}  c #4D4E50",
"|  c #4D4F50",
" . c #4E4E50",
".. c #4E4F50",
"X. c #4F4F50",
"o. c #4E4F51",
"O. c #4E4F50",
"+. c #514E50",
"@. c #504F50",
"#. c #4E5050",
"$. c #4E5051",
"%. c #4F5051",
"&. c #4E5052",
"*. c #4F5052",
"=. c #4F5051",
"-. c #505051",
";. c #505052",
":. c #505152",
">. c #505153",
",. c #515153",
"<. c #535052",
"1. c #505252",
"2. c #505253",
"3. c #515353",
"4. c #515254",
"5. c #515354",
"6. c #525254",
"7. c #525354",
"8. c #525355",
"9. c #525455",
"0. c #535455",
"q. c #525555",
"w. c #535555",
"e. c #535456",
"r. c #535556",
"t. c #535557",
"y. c #545557",
"u. c #545657",
"i. c #555757",
"p. c #525455",
"a. c #545658",
"s. c #555658",
"d. c #555758",
"f. c #575758",
"g. c #555758",
"h. c #585758",
"j. c #555858",
"k. c #555859",
"l. c #565858",
"z. c #565859",
"x. c #575959",
"c. c #56585A",
"v. c #57585A",
"b. c #56595A",
"n. c #57595A",
"m. c #57595B",
"M. c #575A5B",
"N. c #57595A",
"B. c #58595A",
"V. c #585A5B",
"C. c #595A5C",
"Z. c #5E5E5F",
"A. c #585A5B",
"S. c #605F60",
/* pixels */
"                                                                                                                                ",
"                                                                                                                                ",
"                                                                                                                                ",
"                                                                                                                                ",
"                                                                                                                                ",
"                                                                                                                                ",
"                                                                                                                                ",
"                                                                                                                                ",
"                ; = = ; ; ; t $ t t t t t < y < 9 t t t < 9 9 9 9 < t t % t t t t t > t t t ; o t : ; ; : : ; :                 ",
"                ; ; ; ; ; = t $ t t t t t t < < < < t W t 9 9 9 9 9 9 9 = t ; t ; = t = = ; ; o t : : ; t ; t :                 ",
"                o o o o o o $ o o o o @ o @ $ $ $ $ $ & $ $ $ @ $ % $ $ $ @ $ $ o o o o o o o o o o o o X . o o                 ",
"                = & : ; t t t y t t < < % < 9 9 f z f M z M M % M z f f f f z f 9 < ; t t t t t t : t ; = = : :                 ",
"                ; = = z t t t 9 t t t < % f z M M M f P P ) P % P P M P M M M M f z & < t < < t t t t : = t : ;                 ",
"                & % % & = = & = = = = ; & & t < t t 9 , 9 9 9 % 9 9 9 9 t t t = : ; $ = = = = % o % & & % & & %                 ",
"                = ; ; 9 M t t % t t z M M P P ) ) ) ) o.%.%.;.;.;.%.%.) 9 ) ) P P M M M f 9 9 o < t t t t t t ;                 ",
"                = t ; t 9 < 9 % M z M M P ) ) o.%.;.%.5.5.;.e.e.e.;.;.%.9 %.%.P ) P P M M z 9 o 9 t t t t t t ;                 ",
"                = ; t t 9 f f & M M P ) ) o.%.;.5.) ;.e.e.e.a.a.a.a.e.%.b ;.;.;.o.o.) P M M f o f 9 t t t t : ;                 ",
"                $ o $ % % = = - & % = ; $ t t 9 9 f b = 9 M M & M M M 9 9 t t t t ; % = & & & % % % $ $ o $ $ $                 ",
"                t = t t f M P +.P P ) o.= e.y.a.m.m.V.m.m.m.m.> m.m.m.m.;.m.a.a.e.5.b %.) ) P M z f t t & ; t ;                 ",
"                t = t 9 f z P ;.) ) %.;.= e.m.C.m.m.m.m.V.m.m.t m.m.m.m.y.;.m.m.a.e.^ ;.%.) P M M f 9 9 ; t t ;                 ",
"                o o o @ $ $ $ & % % & = $ > > > > t t t t t t & t t ; 9 = & = = = = % & % $ $ $ @ + @ + o o o .                 ",
"                t < 9 9 M M P t o.5.a.y.m.V.m.m.m.m.9 m.m.a.m.m.m.m.m.m.^ V.m.V.e.V.m.;.o.o.o.o P M z f 9 < t t                 ",
"                t < 9 f W P o.9 5.5.a.m.V.V.m.m.V.m.a.m.m.m.m.V.m.a.Z.m.^ m.m.e.m.e.m.o.5.%.P o ) M b f < > > ;                 ",
"                < t 9 W M P o.t 5.y.a.e.m.m.V.m.m.m.m.V.m.m.m.a.a.e.y.m.) y.e.m.m.e.;.e.a.o.^ o M f f < 9 9 t =                 ",
"                ; & = t , 9 9 t 9 f %.;.= 5.5.e.e.e.;.e.e.e.5., 5.e.e.e.) M ;.5.5.M 9 M M P P M b 9 t t = $ ; =                 ",
"                < ; t M P o.5.y.y.m.m.V.> m.m.m.m.m.V.m.V.V.V.> V.m.m.m.m.m.V.m.m.y.^ ;.;.%.e.5.%.) ) M t t t t                 ",
"                t t 9 M ) ) 5.e.a.V.m.V.> m.C.m.m.m.y.m.V.V.m., m.m.m.m.;.m.m.m.m.m.t ;.%.%.o.) ;.M f 9 ; z < t                 ",
"                o o X o o o o o o $ % % & $ = = = ; > t t t > ; t t > t = = = % * * # $ $ % $ o o o # o $ o o o                 ",
"                t z M ) ) o.y.t m.m.m.m.V.m.m.m.m.m.a.m.V.m.m.;.e.e.;.m.^ ;.;.3.e.m.m.e.m.e.m.% 5.) b W ) ) W W                 ",
"                ) 9 M P o.;.5.t m.V.C.m.m.m.V.V.m.a.m.m.V.m.y.m.m.m.m.m.M m.m.V.m.m.y.y.V.a.m.& 5.%.) P f z f 9                 ",
"                t < 9 M M +.o.; e.e.e.e.) ;.y.a.e.%.b 5.y.;.e.o.) ;.y.%.^ ;.e.e.;.;.) e.e.e.) $ ) ) M 9 9 t < t                 ",
"                9 = z W ) 5.e.Z.m.a.m.V.& m.m.m.m.m.m.y.m.V.m.f m.m.m.m.m.e.m.a.e.y.) ;.;.e.e.5.) o.) P & f 9 <                 ",
"                f 9 M ) ) a.e.S.V.Z.V.V.t V.m.V.V.V.m.m.m.V.V.9 m.m.V.V.a.V.m.m.a.m.5.V.m.m.e.e.5.^ ) M t M 9 t                 ",
"                f t P ) ) a.y.C.V.C.C.m.t V.m.m.m.m.a.m.V.m.V.9 V.m.m.C.m.V.a.m.m.m.;.m.m.m.m.y.;.%.M f 9 9 9 t                 ",
"                $ $ $ & $ % = $ % = y > 9 t ; = ; 9 > f 9 t f f f f f 9 t f 9 t t = = ; = % = % = = = & & % % %                 ",
"                9 f M P o.h.C.9 y.m.V.m.V.m.V.m.m.m.^ 5.y.V.a.m.V.m.m.y.^ m.m.m.m.m.a.V.V.m.m.= 5.o.) ) 9 f 9 <                 ",
"                9 z M P ) 0.V.t V.V.m.V.m.m.m.V.V.m.m.y.a.e.e.m.m.a.m.m.%.m.y.m.m.m.m.m.m.m.m.= y.o.) P 9 f 9 t                 ",
"                & = = & = : 9 % b M 9 > b M b P P P M M P P P M , f , ) M t b P M M P P M M ; % % ; = % & = & @                 ",
"                9 t z M ) y.V.V.a.V.m.m.t V.m.m.V.V.C.C.V.m.y., V.V.y.m.m.m.V.m.m.a.5.a.C.m.a.e.o.o.) M 9 ; t t                 ",
"                t t 9 M P o.V.5.e.m.m.V.t V.m.m.V.m.C.m.m.V.V.t V.y.a.V.m.y.m.m.m.m.o.m.m.m.a.%.;.) P 9 t < < t                 ",
"                9 t 9 M M ) y.5.e.m.m.m.t y.m.5.m.m.m.e.e.m.m.t m.m.V.V.V.V.V.C.V.V.b m.V.a.e.o.^ ) P M t 9 < t                 ",
"                & = = : t t = & = t M f P P M P M 9 P P ^ b ^ ^ ^ P ) o.f ) ) o.o.) ) ) ^ M f % t t t ; = = = =                 ",
"                < 9 9 M z M P > ;.e.a.m.m.m.a.m.a.a.y.V.m.m.m.m.m.e.;.y.^ V.m.V.V.V.V.m.y.%.%.% ) P M z 9 9 t t                 ",
"                t 9 9 t t M P ; o.;.5.y.m.m.m.V.m.e.a.m.V.m.m.V.V.m.m.e.) m.m.m.m.C.m.y.;.^ o.% M M z z 9 t t t                 ",
"                @ @ @ $ $ $ % + % % % % $ & & & = % + % = & = % $ % = = & = & & = = & & & * % o % $ $ o o o o o                 ",
"                t = t < 9 f M P ) o.o.5.% a.m.y.m.V.m.V.V.m.V.= e.m.V.m.m.m.m.V.a.a.) %.o.) ) P M z f 9 = t t ;                 ",
"                t = t < 9 f f M W ) o.%.& 5.a.m.m.a.y.e.m.m.m.= y.m.m.m.C.y.m.a.e.e.P ;.^ ) M z z 9 f t ; t t ;                 ",
"                = = : t t 9 9 z M M b M # o.;.%.e.a.m.a.e.m.m.& y.a.a.m.5.y.;.5.;.o.M ) P M z 9 t t < t = ; : =                 ",
"                ; ; = = = = 9 $ t 9 M P P ^ b 9 P o.% ;.e.e.e.e.e.e.e.5.f ;.;.o.) 9 z f f ; 9 $ t t t : ; ; ; ;                 ",
"                : t : t t 9 9 % f M M W ) ) o.o.;.o.f e.e.5.5.e.e.e.e.e.9 ;.;.o.;.) P P M z f $ t t t t t t ; :                 ",
"                t t t t t t < % z f z M M P ^ ) o.) ) %.;.;.;.;.;.%.) %., o.) ) ) P f M z z t $ = t t t : : : =                 ",
"                o o o o o o o o o o o o . o o o o o o o o o o o o $ $ $ @ + $ $ $ $ $ $ $ $ $ $ @ $ o $ $ @ $ O                 ",
"                t = : t : t < z 9 9 9 9 $ f M M M P P ) W ) ) $ P P ) P ) P M f z 9 t 9 z < 9 9 < z t ; = = : :                 ",
"                t = ; t : t t < t < z 9 $ 9 z f f f P M M P P $ M M M M W z 9 f f z = < < z t t ; ; t t ; t t <                 ",
"                & & & = = = % t = = = = @ % = = = ; : t t ; ; o t t t t ; t : & ; ; $ = = = = % + % = = % & = %                 ",
"                : : t t t t ; $ = t t t t t W < 9 < t 9 9 f 9 9 9 9 9 f = ; 9 t t < t t t t t o : : : t t t : ;                 ",
"                                                                                                                                ",
"                                                                                                                                ",
"                                                                                                                                ",
"                                                                                                                                ",
"                                                                                                                                ",
"                                                                                                                                ",
"                                                                                                                                ",
"                                                                                                                                "
};
